<?xml version="1.0" encoding="utf-8"?>
<!-- Generator: Adobe Illustrator 21.0.2, SVG Export Plug-In . SVG Version: 6.00 Build 0)  -->
<svg version="1.1" id="Слой_1" xmlns="http://www.w3.org/2000/svg" xmlns:xlink="http://www.w3.org/1999/xlink" x="0px" y="0px"
	 viewBox="0 0 500 500" style="enable-background:new 0 0 500 500;" xml:space="preserve">
<style type="text/css">
	.st0{fill:#121212;stroke-width:6;}
</style>
<path class="st0" d="M258.3,337.4c-8.2,0-20.7,0-28.8,0c-3,0-5.3,0-6.7,0h-1.5v-1.5c0,0-0.1-56.7-0.1-82.1h-15.1v-37.9h15.6
	c0-1.2,0-2.3,0-3.5c0-3.6-0.1-7.4,0.1-10.5c0.6-12.8,5-23.2,12.6-30.2c7.1-6.5,16.8-9.6,28.1-9h0.1c9.9,0,25.6,4.7,28.9,6l1,0.4V180
	c0,4.6,0,9.3,0,14v7.9H291c-1.7,0-3.3,0-4.7,0c-2.8,0-5.3,0-7.7,0c-6,0.1-10,0.2-11.2,1.5c-0.3,0.3-0.7,0.9-0.6,2.6v8.6H294
	l-0.4,1.8c-2.3,11.1-8.6,36.1-8.7,36.4l-0.3,1.1h-17.8v83.5h-1.5C263.7,337.4,261.3,337.4,258.3,337.4z M229.4,334.4
	c8.1,0,20.6,0,28.8,0c2.1,0,3.9,0,5.3,0v-83.5H282c1.2-4.7,5.8-23.1,8-33.3h-26.5v-11.5c-0.1-1.3,0-3.3,1.4-4.7
	c2.1-2.2,6.2-2.4,13.4-2.5c2.5,0,5,0,7.8,0c1,0,2.1,0,3.2,0V194c0-4.7,0-9.4,0-14v-8.8c-4.5-1.5-18.2-5.4-26.9-5.4h-0.1
	c-10.5-0.5-19.5,2.3-26,8.2c-7,6.4-11.1,16.1-11.6,28.1c-0.1,3-0.1,6.7-0.1,10.3c0,1.7,0,3.4,0,5v1.5h-15.6v31.9h15.2v1.5
	c0,22.3,0.1,72.7,0.1,82.1C225.7,334.4,227.4,334.4,229.4,334.4z"/>
</svg>
