<?xml version="1.0" encoding="utf-8"?>
<!-- Generator: Adobe Illustrator 21.0.2, SVG Export Plug-In . SVG Version: 6.00 Build 0)  -->
<svg version="1.1" id="Слой_1" xmlns="http://www.w3.org/2000/svg" xmlns:xlink="http://www.w3.org/1999/xlink" x="0px" y="0px"
	 viewBox="0 0 1200 630" style="enable-background:new 0 0 1200 630;" xml:space="preserve">
<style type="text/css">
	.st0{fill:none;stroke:#121212;stroke-width:9;stroke-miterlimit:10;}
</style>
<path class="st0" d="M409.5,289.7c-9-18.9-17.6-39.6-19.3-53.1c-1.3-4.7-2.7-9.3-3.8-14c-3.7-15.6,6.4-28.9,22.5-29.4
	c8.2-0.3,16.3-0.1,24.5-0.1c8.5,0,17-0.1,25.5,0c14.7,0.1,25,7.9,30.4,21.6c8,20.4,16.1,40.8,25.1,60.8
	c7.8,17.2,19.3,32.1,32.3,47.4c0.1-2.5,0.3-4,0.3-5.6c0-18.2-0.2-36.3,0.1-54.5c0.2-12.2-3-22.9-10.4-32.6c-2.5-3.2-4.7-7.1-5.5-11
	c-3-14.3,6.8-26,21.9-26.1c20.7-0.2,41.3,0,62,0c2.3,0,4.7,0,7,0c15.8,0.2,25.7,9.8,25.8,25.6c0.1,23,0,46,0,69
	c0,5.8,0,11.5,1.1,17.9c5.4-6.4,11-12.6,16.2-19.2c17.4-22.3,31.3-46.8,42.1-72.9c5.8-13.9,15.8-20.7,31-20.4c15,0.3,30-0.1,45,0.1
	c16.7,0.2,28.4,13.1,25.8,28.4c-0.7,3.8-2.4,7.6-4.2,11.1c-16.4,33.2-35.6,64.8-57.8,94.4c-4.9,6.5-4.7,7.8,1.5,13.4
	c24.8,22.5,47.3,46.9,64.1,76.2c7.1,12.4,7,22.8-1,32.4c-5.1,6.2-11.9,9.1-19.7,9.2c-15.7,0.1-31.3,0-47-0.4
	c-12.5-0.3-22.5-6.4-31-15.2c-13.5-13.9-26.9-27.7-40.4-41.6c-8.5-8.7-16.6-13.5-25.3-15.1c-0.1,1.8-0.2,3.5-0.2,5.3
	c0,11.3,0.1,22.7,0,34c-0.2,21.1-14.2,33.6-35.3,32.8c-37.9-1.4-72.3-12.8-102.7-35.6c-12.2-9.2-23.4-19.8-34.7-30.1
	c-11.6-12.7-20-24-28-35.9c-4.7-7-9.3-14.1-14.3-21.7C426.4,325.2,420.8,313.4,409.5,289.7z"/>
<image style="display:none;overflow:visible;enable-background:new    ;" width="1200" height="630" xlink:href="8B87FDE0.png" >
</image>
</svg>
